<?xml version="1.0" encoding="UTF-8"?>
<svg id="Layer_2" data-name="Layer 2" xmlns="http://www.w3.org/2000/svg" viewBox="0 0 843.9 843.9">
  <g id="favicon">
    <g id="noteitfull">
      <path d="M113.35,843.9c-13.44,0-25.08-10.03-26.76-23.71L.2,116.67c-.87-7.11,1.11-14.27,5.52-19.91,4.41-5.64,10.88-9.3,17.99-10.18L727.22,.2c7.1-.87,14.27,1.11,19.91,5.52,5.64,4.41,9.3,10.88,10.18,17.99l86.38,703.51c1.82,14.8-8.71,28.27-23.51,30.09L116.67,843.69c-1.12,.14-2.23,.2-3.32,.2ZM57.09,136.89l79.8,649.92,649.92-79.8L707.01,57.09,57.09,136.89Z"/>
    </g>
  </g>
</svg>